<svg xmlns="http://www.w3.org/2000/svg" width="530" height="530" viewBox="0 0 530 530">
  <defs>
    <style>
      .cls-1 {
        fill: #8ed4a6;
        fill-rule: evenodd;
      }
    </style>
  </defs>
  <path id="形状_327_1" data-name="形状 327 1" class="cls-1" d="M225.146,6C378.389,4.738,461.469,65.877,502.328,154c73.256,158-29.939,312.559-135.089,357-26.111,11.036-64.607,16-114.075,16-262.3,0-334.52-337.655-143.093-473-4.631-2.777,5.362-6.263,12.008-8,11.105-10.724,46.338-25.336,68.044-34C204.077,6.43,215.3,12.627,225.146,6Zm68.045,132C276.6,162.06,156.4,273.74,154.1,297l1,1,1,1c27.536-.271,67.706-3.283,87.057,3v9c-7.054,9.3-14.4,82.071-10.007,101h1l3-2c2.741-11.454,11.684-17.629,18.012-26v4Q311.7,322.006,368.24,256q-1-2-2-4l-80.052-1C279.7,222.019,304.068,156.7,293.191,138Z"/>
</svg>
