<?xml version="1.0" standalone="no"?><!DOCTYPE svg PUBLIC "-//W3C//DTD SVG 1.1//EN" "http://www.w3.org/Graphics/SVG/1.1/DTD/svg11.dtd"><svg t="1741663909361" class="icon" viewBox="0 0 1024 1024" version="1.1" xmlns="http://www.w3.org/2000/svg" p-id="2043" xmlns:xlink="http://www.w3.org/1999/xlink" width="128" height="128"><path d="M512 512m-512 0a512 512 0 1 0 1024 0 512 512 0 1 0-1024 0Z" fill="#99D6F2" p-id="2044"></path><path d="M724.662857 256H296.338286c-22.162286 0-40.155429 17.993143-40.155429 40.155429V727.771429c0 29.549714 30.793143 48.932571 57.417143 36.242285l179.602286-98.267428c10.971429-5.193143 23.625143-5.193143 34.56 0l179.638857 98.304a40.155429 40.155429 0 0 0 57.417143-36.278857V296.155429c0-22.162286-17.993143-40.155429-40.155429-40.155429zM345.051429 354.925714h217.453714c6.070857 0 11.629714 3.84 14.628571 10.020572a23.405714 23.405714 0 0 1 0 20.114285c-2.998857 6.217143-8.557714 10.020571-14.628571 10.020572H345.051429c-6.034286 0-11.593143-3.84-14.628572-10.057143a23.405714 23.405714 0 0 1 0-20.077714c3.035429-6.217143 8.594286-10.020571 14.628572-10.020572z m0 80.310857h272.091428c9.325714 0 16.896 8.996571 16.896 20.077715 0 11.081143-7.570286 20.077714-16.896 20.077714h-272.091428c-9.325714 0-16.896-8.996571-16.896-20.114286 0-11.044571 7.570286-20.041143 16.896-20.041143z m326.729142 120.466286H345.051429c-6.253714 0.402286-12.214857-3.291429-15.433143-9.691428a23.405714 23.405714 0 0 1 0-20.772572c3.218286-6.363429 9.142857-10.130286 15.433143-9.691428h326.729142c6.253714-0.438857 12.178286 3.291429 15.433143 9.691428a23.405714 23.405714 0 0 1 0 20.772572c-3.254857 6.363429-9.179429 10.093714-15.433143 9.691428z" fill="#FFFFFF" p-id="2045"></path></svg>