<svg xmlns="http://www.w3.org/2000/svg" width="530" height="530" viewBox="0 0 530 530">
  <defs>
    <style>
      .cls-1 {
        fill: #a7d4db;
        fill-rule: evenodd;
      }
    </style>
  </defs>
  <path id="形状_332_1" data-name="形状 332 1" class="cls-1" d="M225.231,2.094c72.828-1.008,132.831,4.582,175.155,33.98l33.029,26.984c17.842,9.893,39.146,28.306,44.039,46.973q0.5-2,1-4l11.009,21.987q0.5-2,1-4L507.48,165q0.5-2.5,1-5c46.968,66.076,6.906,213.949-24.021,257.847q-0.5-2-1-4c-5.6,25.158-33.359,41.311-51.045,56.966-94.47,83.624-269.679,72.625-352.31-13.991-12.164-12.751-30.937-22.88-35.031-42.975l-1,4C11.47,372.416-27.226,227.487,20.051,160l1,5,17.015-40.976,1,4,11.01-21.987,1,4C62.854,69.268,141.891,26.471,185.2,10.089,198.7,4.982,215.77,10.313,225.231,2.094ZM257.26,159l-20.018,35.979q-0.5-2-1-4C230.4,230.625,173.047,277.553,189.2,335.9l11.009,25.985c5.624,5.731,52.377,30.578,52.046,31.981,18.36,0.4,31.913-8.839,44.039-14.991,83.656-42.444-2.951-174.879-33.029-219.87h-6Z"/>
</svg>
