<svg xmlns="http://www.w3.org/2000/svg" width="530" height="530" viewBox="0 0 530 530">
  <defs>
    <style>
      .cls-1 {
        fill: #dba7bc;
        fill-rule: evenodd;
      }
    </style>
  </defs>
  <path id="形状_324_1" data-name="形状 324 1" class="cls-1" d="M259,0C373.311,1.8,471.622,74.956,496,148c9.647,28.906,40.37,88.328,25,125q-0.5,22.5-1,45c-9.536,32.363-21.577,68.924-40,94,0,0-45.224,50.761-61,60-23.211,13.594-64.3,36.643-107,50-35.67,11.158-86.614-4.972-115-6-11.559,6.1-86.916-39-91-42l4-1c-27.633-8.843-44.071-35.853-59-58l-1,4c-3.478-17.138-12.105-18.806-18-30-13.318-25.29-19.791-47.6-29-77V256C2.99,128.955,79,63.272,158,23L212,5C228.966-.428,247.391,8.668,259,0ZM196,95l-15,12c-20.655,30.333,14.624,51,20,66-51.99.288-71-4.064-71,51q0.5,25.5,1,51H254l2-2q0.5-43,1-86l2-2,18,1c9.316,22.446-1.393,62.048,4,88l2,2,118-1c11.28-22.928,4.971-72.75-2-94-14.1-6.626-33.179-7.242-56-7l-3-7c7.885-15.154,23.028-19.418,24-45l-13-22c-35.129-26.678-66.756,19.012-86,26C247.561,102.478,239.437,95.1,196,95Zm17,18c24.554,9.418,36.83,19.135,43,45l-4,8c-20.594,5.555-59.6-24.7-54-42q1-3,2-6Zm109,0,13,5,5,6c0,25.665-28.484,42.132-52,43l-7-11,10-23C293.322,129.571,314.7,121.005,322,113Zm-79,16h0ZM132,300c-6.953,16.866-6.683,92.252,5,100l117,1,2-2c0.3-31.024,4.557-73.248-3-99H132Zm150,0q-0.5,50.495-1,101c27.134,6.165,93.3,6.553,115-3,10.8-17.415,14.839-61.3,9-91C381.382,291.881,318.069,299.7,282,300ZM0,529l530,1Z"/>
</svg>
