<?xml version="1.0" standalone="no"?><!DOCTYPE svg PUBLIC "-//W3C//DTD SVG 1.1//EN" "http://www.w3.org/Graphics/SVG/1.1/DTD/svg11.dtd"><svg t="1741663929535" class="icon" viewBox="0 0 1024 1024" version="1.1" xmlns="http://www.w3.org/2000/svg" p-id="3792" xmlns:xlink="http://www.w3.org/1999/xlink" width="128" height="128"><path d="M512 512m-512 0a512 512 0 1 0 1024 0 512 512 0 1 0-1024 0Z" fill="#8CA8E6" p-id="3793"></path><path d="M497.078857 512v221.330286c0 19.017143-15.36 34.377143-34.377143 34.377143H327.241143a34.377143 34.377143 0 0 1-34.377143-34.377143V431.433143c0-45.165714 29.622857-84.955429 72.923429-97.865143V263.570286h58.331428V333.531429a102.180571 102.180571 0 0 1 72.96 97.901714V512z m-72.96-263.058286h-58.331428v-12.068571c0-9.472 7.68-17.188571 17.188571-17.188572h23.954286c9.508571 0 17.188571 7.753143 17.188571 17.188572v12.068571z m350.134857 270.336H540.891429V480.548571a34.377143 34.377143 0 0 1 34.377142-34.377142h164.644572a34.377143 34.377143 0 0 1 34.377143 34.377142v38.692572z m0 29.220572v184.832a34.377143 34.377143 0 0 1-34.377143 34.377143h-164.644571a34.377143 34.377143 0 0 1-34.377143-34.377143v-184.832h233.398857z m-95.890285 89.088a14.592 14.592 0 0 0-20.626286 0l-62.025143 62.061714a14.592 14.592 0 0 0 20.626286 20.626286l62.061714-62.061715a14.592 14.592 0 0 0 0-20.626285z m41.325714-10.349715a14.628571 14.628571 0 0 0-20.662857 20.662858l15.506285-15.506286a14.628571 14.628571 0 0 0 20.662858-20.662857l-15.506286 15.506285z m-15.469714-15.469714a14.628571 14.628571 0 0 0-20.662858 20.662857l15.469715-15.506285a14.628571 14.628571 0 0 0 20.662857-20.662858l-15.469714 15.506286z m-15.469715-15.506286a14.628571 14.628571 0 0 0-20.662857 20.699429l15.469714-15.506286a14.628571 14.628571 0 1 0 20.699429-20.662857l-15.506286 15.469714z" fill="#FFFFFF" p-id="3794"></path></svg>