<svg xmlns="http://www.w3.org/2000/svg" width="530" height="530" viewBox="0 0 530 530">
  <defs>
    <style>
      .cls-1 {
        fill: #f99;
        fill-rule: evenodd;
      }
    </style>
  </defs>
  <path id="形状_322_1" data-name="形状 322 1" class="cls-1" d="M218,0.031C362.02-1.141,420.294,32.85,477,106.943v-4q2.5,5.494,5,10.991l1-4c71.212,98.759,47.762,246.926-12,323.733v-4c-8.838,12.771-25.382,34.881-41,39.967l4,1C291.832,586.55,95.767,513.474,33,393.706,11.773,353.2,0,318.121,0,252.822V217.851C31.193,139.224,46.019,91,105,47.992,128.851,30.6,158.422,18.07,188,7.025,200.065,2.52,209.87,7.066,218,.031ZM178,133.92c-30.55,28.932-49.409,22.219-62,65.946-25.023,86.9,69.671,152.643,113,182.849,9.269,6.462,19.148,27.78,37,27.977,58.522-52.52,116.851-85.352,150-164.864,5.418-13-2.635-34.32-5-40.966-15.446-43.406-44.383-91.6-108-61.949-14.644,6.826-32.249,19.748-37,32.973C235.942,160.561,233.828,133.43,178,133.92Zm37,52.957,19,2,34,45.962,3-1,12-21.982,1,4c10.747-13.431,12.017-18.478,24-28.976l14,4q2,6.995,4,13.989l-18,24.979v-4c-4.55,5.992-10.043,15.611-9,20.983l25,2,2,2c1.671,32.772-20.067,19.259-42,29.975l3,3c12.351-.562,27.183-1.07,34,4,7.856,7.277,5.675,15.348,0,22.981l-37,6c0.441,14.165-1.957,22.314-6,30.975l-12,3c-12.182-10.8-10.143-15.323-14-35.97-20.773.959-36.823,0.534-39-11.99l-2,4q-2-5.5-4-10.991c4.627-3.138,4.148-7.029,9-9.992,9.945-4.43,28.7-.727,37-6l-1-1c-21.41-5.213-38.737,2.332-44-16.986q4-6.995,8-13.989l19-2,1-1-28-44.963Z"/>
</svg>
