<svg xmlns="http://www.w3.org/2000/svg" width="530" height="530" viewBox="0 0 530 530">
  <metadata><?xpacket begin="﻿" id="W5M0MpCehiHzreSzNTczkc9d"?>
<x:xmpmeta xmlns:x="adobe:ns:meta/" x:xmptk="Adobe XMP Core 9.0-c001 79.c0204b2, 2023/02/09-06:26:14        ">
   <rdf:RDF xmlns:rdf="http://www.w3.org/1999/02/22-rdf-syntax-ns#">
      <rdf:Description rdf:about=""
            xmlns:xmp="http://ns.adobe.com/xap/1.0/">
         <xmp:CreatorTool>Adobe Photoshop 24.3 (Windows)</xmp:CreatorTool>
      </rdf:Description>
   </rdf:RDF>
</x:xmpmeta>
                                                                                                    
                                                                                                    
                                                                                                    
                                                                                                    
                                                                                                    
                                                                                                    
                                                                                                    
                                                                                                    
                                                                                                    
                                                                                                    
                                                                                                    
                                                                                                    
                                                                                                    
                                                                                                    
                                                                                                    
                                                                                                    
                                                                                                    
                                                                                                    
                                                                                                    
                                                                                                    
                           
<?xpacket end="w"?></metadata>
<defs>
    <style>
      .cls-1 {
        fill: #ffb588;
        fill-rule: evenodd;
      }
    </style>
  </defs>
  <path id="形状_334_1" data-name="形状 334 1" class="cls-1" d="M530,530L0,529H529q0.5-264.474,1-529V530ZM232,3C481.64,0.219,600.277,236.141,470,427c-34.648,50.76-89.773,74.464-155,97H289c-69.853,10.482-128.826-14.883-163-37-4.014-2.6-20.8-8.8-17-12-20.51-14.844-48.692-29.868-56-57l-1,4c-61.8-76.243-63.548-222.637-6-305l1,4C57.827,78.149,138.295,31.611,178,17,192.643,11.612,220.094,12.337,232,3ZM210,147v5c4.828,4.77,8.556,6.416,19,6q3,24.5,6,49c21.444,32.869,58.05.791,61-23-7.558-9.944-16.548-36.018-37-31l-15,6C232.59,156.246,231.625,146.854,210,147Zm102,18q2,17.5,4,35c-5.5,20.123-32.816,46.985-66,37-13.795-4.151-24.85-21.077-35-23l-78,81c17.094,3.78,170.617-55.272,197-65,18.116-6.68,48.325-7.8,59-22C366.738,185.349,362.756,164.816,312,165Zm64,72L136,318q1,31,2,62l3,1,180-60c24.552-7.825,53.718-12.641,72-27q-0.5-28-1-56Z"/>
</svg>
