<svg xmlns="http://www.w3.org/2000/svg" width="530" height="530" viewBox="0 0 530 530">
  <defs>
    <style>
      .cls-1 {
        fill: #b4e081;
        fill-rule: evenodd;
      }
    </style>
  </defs>
  <path id="形状_317_1" data-name="形状 317 1" class="cls-1" d="M430.322,60.088v0.535c5.06,1.347,8.068,5.354,11.249,8.648,6.581,6.816,13.576,13.176,20.017,20.149l9.123,9.272c1.5,2.455,7.916,16.55,9.211,17.3q0.045-2.274.089-4.547H480.1l0.177,0.089,6.111,11.946h0.266l0.177-.178-0.177-4.1,0.266-.089c1.055,3.97,3.311,7.154,4.428,11.5l1.329,0.178c-1.678,3.377,4.345,14.571,6.023,16.939h0.177c0.024-1.452.281-3.045,0-3.834l0.088-.089,0.178,0.089c1.9,3.035,4.583,7.6,4.871,11.858l1.24,0.267c1.956,4.046,4.53,7.931,5.226,12.749l1.24,0.178-0.177,5.349-0.62.179v0.178l1.86,0.535,4.162,12.571,1.063,0.089q0.265,10.786.532,21.575c0,1.622-.608,6.928.62,7.31a28.539,28.539,0,0,1-.266-5.26l0.266,0.089,1.948,1.962c1.128,1.919,1.144,4.33,2.126,6.33l0.886,0.089q-0.045,2.54-.089,5.081h-0.443v0.624l0.709,0.09c1.164,1.952.531,16.016,0.531,19.7q-0.132,28.527-.265,57.058c-0.566.206-.844,0.071-0.975,0.8-1.036,1.365-.882,3.24-1.594,4.993-0.584,1.439-2.369,2.642-3.454,3.655,0.019,7.5.83,16.792-.532,22.645q-0.043,2.942-.088,5.884l-1.063.178c-1.54,5.309-3.32,10.261-5.314,15.424q-0.045,1.782-.089,3.566l-1.24.089c-0.128,3.62-3.847,11.516-6.2,13.016-0.268,4.486-3.747,7.5-4.606,11.59H499.32v-4.457h-0.355l-6.377,12.749c-3.86,8.386-7.833,16.532-12.4,24.427l-0.266-.089v-4.725l-0.265.089c-1.125,4.1-9.195,18.76-12.135,20.6-0.029-.06-0.059-0.119-0.088-0.179q-0.045-1.069-.089-2.139h-0.177q-1.506,2.985-3.011,5.973l-23.118,23.447-5.845,5.527c-1.153.791-4.816,1.4-5.226,2.764V468.5h1.86l0.177,0.357-2.48,2.407L423.5,474.2q-0.22.536-.443,1.07l-2.48.892-8.414,4.457V480.8l3.986,0.089c-0.03.237-.059,0.475-0.089,0.713-3.753.63-9.1,4.638-12.223,6.419l-16.3,8.113c-1.668.909-7.435,2.9-8.149,4.279V500.5l4.606-.089c-8.408,3.11-15.225,8.566-24.446,11.323l-0.177,1.069c-5.369-.062-8.566,1.6-12.311,3.21-2.535,1.09-4.734,1.15-6.732,2.05,0.038,0.66.059,0.836-.354,1.07l-5.314-.089-0.62.535-16.209.178c-0.869,3.977-7.733,3.506-8.857,5.349l5.668,0.09v0.089l-5.668.089c-1.549.737-4.272,0.186-6.466,0.446l-20.46.178H232.1l-18.245-.624c0.17-.532.2-0.615-0.178-0.981-1.474-.962-3.561-0.868-5.314-1.6l-3.1-2.764,5.314-.268-6.023-.089c-3.613,0-7.554-.213-10.8-0.356l-5.315-.179c-0.117-2.273-11.672-3.307-13.02-6.24l-6.023-.09-0.177-1.069c-2.814-.095-12.428-4.352-12.577-6.33-3.51-.156-9.991-3.405-12.311-5.171v-1.248c-4.241-2.059-9.309-3.018-13.906-4.636l0.974-.179-0.177-1.6-5.314-1.6-6.2-3.21,0.177-.178h4.34v-0.267a104.882,104.882,0,0,1-20.726-12.125v-0.178l0.177-.09,1.683-.089v-0.178c-0.881-1.315-3.863-1.916-5.314-2.675l-6.112-5.794-29.14-29.243-3.011-5.795H61.6q-0.088.938-.177,1.873H61.155l-3.012-3.121-2.746-5.7-0.266.089-0.177,1.872c-2.811-1.837-3.654-4.815-5.314-7.845l-1.417-1.427-5.4-11.233c-0.629.517,0.054,3.462-.266,4.725H42.377c-0.287-.687-5.491-12.3-5.491-12.3l-0.709-.268q-0.089-2.808-.177-5.616l-5.757-11.5H30.066c0.054,1.424.312,3.375-.266,4.369H29.446l-0.088-.09c-0.825-4.129-4.239-7.4-4.783-12.124l-1.063-.09C21.68,368.588,19.62,364.77,18.2,360l-1.063-.357-0.088-5.973-1.063-.268-4.074-12.57a1.381,1.381,0,0,1-1.063-.268v-5.973c-0.584-.321-1.026-0.3-1.151-1.159L5.531,321.484H5V206.922l0.709-.089,4.163-12.659L10.757,194q0.089-3.163.177-6.33h0.974l4.252-12.838h0.886l0.177-6.329,1.063-.179c0.291-2.569,4.341-12.7,6.111-12.57l0.089-.089c0.591-6.14,5.064-10.457,7-15.246l3.809-9.895,2.037-.357c0.469-2.316,3.723-11.377,5.226-11.947l0.089,0.09,0.089,4.368h0.177c0.623-3.234,9.713-19.3,11.957-20.416l0.266,0.357,0.177,1.6,2.923-5.884,8.326-8.38c6.622-7.167,13.916-13.636,20.637-20.683,3.7-3.883,7.919-9.3,12.223-12.392l5.845-3.031-2.037-.267V53.4l2.569-2.585,6.2-2.942a10.741,10.741,0,0,1,2.48-2.05c2.2-1.144,8.02-2.99,9.3-4.725-1.279.1-4.054,0.4-4.694-.267l0.088-.089c4.042-1.02,7.678-4.119,12.046-4.9q0.043-.535.089-1.07l7.262-3.566c1.979-.658,4.148-0.778,5.58-1.961,0.068-3.073,9.815-4.971,12.4-6.419q0.09-.535.178-1.07c4.109-1.474,7.906-3.816,12.488-5.171l0.177-1.07c2.593-.538,5.207.946,6.378-1.248l12.488-4.1a1.607,1.607,0,0,1,.266-1.07L194.632,9c0.059-.3.119-0.594,0.178-0.892a56.824,56.824,0,0,0,5.58-1.961H301.45c7.061,0,31.743-1.127,32.506,2.764,1.266,0.543,4.356-.036,6.289.267,0.942,2.217,10.052,4.516,12.931,5.26a2.069,2.069,0,0,0,.443,1.159l5.757,0.089,0.443,1.159c4.45,0.664,8.835,3.113,12.311,5.082q0.09,0.624.178,1.248c3.342,0.21,9.625,3.123,11.868,4.814v0.178a12.724,12.724,0,0,1-4.694,0c0.029,0.149.059,0.3,0.089,0.446,4.16,1,8.155,4.216,11.868,5.973,1.617,0.765,4.028-.2,6.112.267q0.043,0.579.088,1.159c3.917,0.489,9,2.9,11.869,4.9h-4.783c0.029,0.149.059,0.3,0.088,0.446l11.6,5.617q0.222,0.624.443,1.248c3.38,2.155,5.671,2.115,8.237,5.26l-1.86.178v0.268c2.293,1.147,8.327,3.746,8.769,6.062l-0.089.089h-1.594Zm43.843,42.793q0.045,0.579.089,1.159Q474.209,103.461,474.165,102.881Zm18.866,26.568c0.03,0.178.059,0.356,0.089,0.535C493.09,129.805,493.061,129.627,493.031,129.449Zm0.709,2.5c0.029,0.119.059,0.238,0.088,0.357C493.8,132.183,493.769,132.064,493.74,131.945ZM226.7,142.2l-0.531,2.228c-4.779.4-9.228,3.5-12.666,5.528l-11.691,5.706v0.178l0.088,0.089h4.517l-11.957,6.33-2.214-.178-9.832,9.628c-0.848.95-.106,1.573-0.531,3.031s-5.225,11.207-6.111,11.679V181.96h-0.443q-2.879,5.883-5.757,11.768h-0.178l-0.177-.179L169.035,189l-0.088.178q-2.924,5.7-5.846,11.412v6.151c-2.506,1.249-4.036,9.982-5.314,13.016l-0.886.09v54.472L159.647,277c1.394,2.163.828,5.647,3.365,6.687l0.177,6.062a1.212,1.212,0,0,1,1.063.357c0.743,6.329,4.912,10.971,7.263,15.869q1.905,3.923,3.809,7.846,0.132-.847.265-1.694h0.178c2.4,1.14,6.7,6.832,8.857,8.915l9.92,9.985,6.111,3.209V334.5l-0.088.089-4.429.178,0.177,0.09,5.4,2.674,13.02,6.865c1.909,0.968,3.978,1.591,5.58,2.853v0.891l0.8-.089-0.265-.446c1.391,0.026,4.26.384,5.137-.267l0.177,1.337c2.825,0.124,8.634,2.855,10.54,4.28h-3.277l-0.443-.714H232.9q0.045,0.536.089,1.07l12.312,0.178q0.221,0.536.442,1.07c2.4,0.145,11.334,3.778,12.223,5.171l-0.177.446h-2.3c0.115,2.191,1.423,5.275,2.923,6.241q0.045,27.189.089,54.383l2.745,2.674h6.2c3.577-1.634,2.924-6.862,2.923-12.124V378.809c0-2.776-.611-11.889.709-13.016-0.587-.842-0.4-8.131-0.089-8.916,1.475-.492,5.161-1.079,6.112-2.229l0.177-.8,6.023-.089c1.591-.591,4.463-0.451,6.731-0.446,0.03-.238.059-0.475,0.089-0.713l12.489-4.279,0.177-1.159c1.311-.087,4.346-0.135,5.58.356,2.166-2.869,8.958-4.417,12.134-6.6l-0.177-.178h-4.163l0.089-.179c3.781-2.1,9.466-6.062,14.7-6.062,0.542-2.046,10.845-11.015,12.931-13.195l5.846-5.973q1.416-2.986,2.834-5.973a125.221,125.221,0,0,0,6.554-11.768c2.131-4.212,4.511-8.808,5.669-13.552,0.159-.652.314-0.477,0.886-0.445a1.728,1.728,0,0,1,1.24-.446l2.125-6.33q1.463-1.47,2.923-2.942-0.043-27.01-.088-54.026h-0.089l-0.177,1.872H371.51a18.749,18.749,0,0,1-4.251-8.737l-1.24-.089q0.045-2.853.089-5.706l-1.506-.446c-0.183-3.037-9.8-23.329-11.337-24.606l-0.177,4.992H353l-5.934-11.5-0.266.089v1.872c-2.339-.694-6.79-8.335-6.2-11.59l-3.632-3.655-3.011-.089L322,155.927v-1.07h0.088l0.177,0.713,4.075,0.179c-0.03-.119-0.059-0.238-0.089-0.357l-11.071-5.438a49.964,49.964,0,0,0-5.757-3.3l-7.086-2.407a2.2,2.2,0,0,0-.443-1.426c-0.867.509-4.843,0.4-5.58-.09-0.389-2.258-8.459-2.056-8.769-5.616h-48.8C234.933,138.442,231.488,141.823,226.7,142.2Zm269.613-3.21h0Zm0.355,1.159h0Zm-262.439.892h0Zm-2.037.891v0.8l-5.049-.089,5.049-.178V141.93Zm265.273,0.8v0Zm-181.218,9.807,0.177,0.089S316.079,152.653,316.242,152.539Zm1.328,0.446h0Zm1.152,0.357,0.354,0.089Zm1.151,0.356,0.266,0.089Zm1.151,0.357,0.266,0.089-0.266.178v-0.267Zm-18.6,28.44c5.719,0.556,13.379,7.776,16.032,11.589q1.461,2.943,2.923,5.884h0.265q0.045-2.317.089-4.635c2.022,3.555,3.3,7.572,4.96,11.679l1.063,0.267-0.177,5.617c0.89,2.869.756,7.51,0.708,10.965,1.591,0.079,5.412,6.717,4.7,9.094-0.709,2.35-2.162,7.881-4.7,7.935q-0.309,8.379-.62,16.76l-0.177.179h-0.8a15.261,15.261,0,0,1-5.314,9.806l-3.543,1.516c-4.074,2.447-9.316,6.5-15.057,6.865l-0.177,2.139c-2.737,1.542-11.828,2.709-12.932,5.171l-12.311-.267c-0.081-1.25-11-5.34-12.755-6.241-0.029-.356-0.059-0.713-0.088-1.07a15.154,15.154,0,0,1-3.366-1.248l-3.1-.891c-2.963-2.13-3.807-5.349-5.757-8.559a51.154,51.154,0,0,1-6.023-13.284,1.386,1.386,0,0,1-1.063-.267c-0.012-6.551-.758-12.562.089-19.257l0.177-6.152,0.974-.089c0.766-4.362,3.249-8.474,4.96-12.125h0.177l0.177,0.357v4.458l0.443-.179a15.943,15.943,0,0,1,6.023-8.826l5.757-2.942c0.591,0.4.377,0.8,0.8,1.159l6.2,2.229c0.033,3.377.66,14.015-.442,15.869l-1.063.178c-0.169,1.795-1.221,5.45-2.3,6.6l-2.392,2.139q-0.043,3.477-.088,6.954c0,8.706,5.137,13.236,12.4,14.71l0.177,1.249h18.689c0.029-.3.059-0.6,0.088-0.892,3.64-1.875,7.1-2.264,9.477-5.349,1.508-1.96,1.752-5.958,4.429-6.687,0.536-4.8,2.745-6.008,4.694-8.915v-7.31L311.813,226l-2.037-6.241H308.89c-0.524-1.385-6.008-12.118-6.554-12.214q-0.045,1.026-.089,2.051l-0.088.089-0.177-.089a20.937,20.937,0,0,0-6.555-6.508l-4.96-2.5,0.177-.179h4.606v-0.178c-3.751-1.786-7.858-3.271-11.957-4.993-0.03-.326-0.059-0.653-0.089-0.98h-31.8c-4.356,1.158-8.319,4.267-12.223,6.151l-3.277.179L223.33,213.609q-1.64,3.3-3.277,6.6c-0.483,1.67.582,4.331-.178,5.884-2.02.09-2.114,4.682-2.922,6.152l-2.835,2.674v26.835l2.835,2.675,1.948,6.151h0.974c0.738,1.562-.283,4.2.178,5.885q2.966,5.883,5.934,11.768l0.354-1.694,0.443,0.089c4.809,5.537,9.365,7.593,15.766,11.411,2.812,1.678,7.2,1.879,9.388,4.191h37.643q0.09-.581.178-1.159c4.716-.263,9.516-3.531,12.931-5.528a59.4,59.4,0,0,1,12.223-4.992,1.494,1.494,0,0,1,.266-1.07l6.465,0.178q0.09,1.56.178,3.12l3.1,3.21c1.056,1.394,2.8,4.68,2.923,6.6l-3.1.179q-1.771,1.782-3.543,3.566l-4.872,2.407L321.113,309c-0.029.089-.059,0.179-0.089,0.268-4.064,1.035-7.3,4.261-12.045,4.9-0.03.327-.059,0.654-0.089,0.981-2.1,1.446-12.414,5.142-12.931,6.419-11.489,0-23.7.445-35.783,0.446l-14.792-.268a0.859,0.859,0,0,1-.177-0.981c-3.377-.307-12.211-4.113-12.754-6.508-3.6-.349-10.636-3.554-12.135-5.8l-2.037-.8c-2.5-1.262-6.056-2.888-7.44-5.26l-3.1-6.6c-2.074-2.175-5.388-8.679-5.669-12.393l-1.151-.178-0.354-9.985h-0.532c-1.717-2.377-4.029-4.972-4.251-8.826l-0.886-.089-0.177-.268c-0.009-7.279-.089-14.192-0.089-21.04q0.089-5.3.178-10.609l0.265-.178,0.709,0.089c0.03-3.2,2.314-8.048,4.783-8.915q0.22-4.992.443-9.985l1.151-.357c0.4-4.042,2.99-9.006,4.96-11.947H207.3l0.089,0.09v4.368l0.265-.089q1.286-2.586,2.569-5.171l11.869-12.036v-0.356l-1.683.089-0.266-.357v-0.089l6.466-3.3,11.691-6.152,6.112-1.961q0.665-.714,1.328-1.427l23.915-.089c3.854,0,19.459-.352,20.283,1.516a64.564,64.564,0,0,1,12.666,4.279Q302.512,181.469,302.424,182.5Zm-63.063-7.133,5.049,0.089ZM228.29,180.89l0.265,0.089-0.265.089V180.89ZM524.031,303.564v0ZM228.2,315.689l4.074,0.089A8.359,8.359,0,0,1,228.2,315.689Zm11.16,5.527,5.049,0.089Zm31.089,5.439v0.891l-0.177.178-5.58.089-0.089-.178c0.03-.3.059-0.594,0.089-0.891-3.794-1.4-5.651-1.975-8.415-4.28l22.852,0.089c-1.026.272-1.26,1.525-2.037,2.051Zm44.286,15.69,0.266,0.09c-0.089.059-.178,0.118-0.266,0.178v-0.268Zm-1.152.446,0.355,0.089-0.266.089C313.643,342.91,313.614,342.851,313.584,342.791Zm-1.062.357,0.265,0.089-0.354.089C312.463,343.267,312.492,343.207,312.522,343.148Zm-1.152.446h0Zm-1.506.356,0.266,0.178Zm-63.506,9.985,5.049,0.089Zm5.58,1.159h0Zm1.152,0.357h0Zm239.233,41.991,0.177,0.267-0.443.179Q492.189,397.665,492.323,397.442Zm-1.152.8h0Zm-4.34,7.489,0.354,2.675-0.354.534v-3.209ZM263.984,416.52h0Zm-0.354.981v0Zm-0.354,1.159v0.357l-0.089-.089C263.217,418.838,263.246,418.749,263.276,418.66Zm160.758,56.434,1.062,0.089ZM402.6,490.606h0Zm-1.417.357h0Zm-1.151.357,0.265,0.089C400.018,491.44,400.088,491.343,400.031,491.32Zm-1.063.356,0.265,0.089Zm-1.152.446,0.355,0.089-0.266.089C397.875,492.241,397.846,492.181,397.816,492.122Z"/>
</svg>
