<svg xmlns="http://www.w3.org/2000/svg" width="530" height="530" viewBox="0 0 530 530">
  <defs>
    <style>
      .cls-1 {
        fill: #eea9c0;
        fill-rule: evenodd;
      }
    </style>
  </defs>
  <path id="形状_323_1" data-name="形状 323 1" class="cls-1" d="M530,530L0.219,529H529q0.5-264.474,1-529V530ZM235.122,4c139.8-1.5,205.314,60.43,254.9,135,22.083,33.215,21.579,67.031,27.988,118,16.141,128.358-83.561,220.448-155.936,250-35.231,14.386-107.221,29.394-152.937,12-20.494-7.8-41.8-5.3-55.976-15l-14.994-9L119.17,485c-32.811-17.444-65.795-62.671-86.964-93C20.071,374.616,15.66,350.477,9.215,328-26.792,202.425,49.972,89.175,115.171,52h-4c26.618-17.092,61.155-33.825,94.961-42C219.443,6.782,226.585,9.986,235.122,4Zm24.989,131c-8.281,6.174-16.373,19.052-7,31,7.584,7.094,20.257,5.427,27.989,0,4.953-10.451,4.071-19.178-2-28ZM216.13,154c-7.329,6.327-13.973,8.959-14.994,22l8,13,25.99-1,7-14C239.79,161.4,231.956,153.354,216.13,154Zm92.961,0-8,4c-4.556,8.171-4.2,17.811-1,27,10.678,5.533,19.384,5.669,28.988-1C336.844,167.088,329.836,152.705,309.091,154ZM175.146,172l-15.993,8c-1.465,10.816-.707,20.59,3,28l10,5C210.62,211.236,188.28,182.687,175.146,172Zm185.924,0-15.994,8c-0.734,11.429-.808,19.841,3,28l10,5c12.74-.222,29.294-14.4,19.992-29ZM165.151,220c-9.452,4.9-14.392,8.255-17.993,19l7,14,13,8,13.994-7,7-12C187.581,228.548,179.287,219.974,165.151,220Zm198.917,0-12.994,10c-2.483,20.324,7.277,25.473,17.992,31l16.993-16C386.964,228.529,379.272,220.132,364.068,220ZM173.147,273c-7.234,3.891-10.1,6.065-14.994,12q1,11,2,22l2,2c9.455,0.289,18.2.812,26.989-3q2.5-8.5,5-17C188.017,280.742,185.92,274.8,173.147,273Zm185.924,0-11,7c-6.242,6.937-3.564,17.435,0,25,10.217,5.825,19.7,5.5,28.988-1C382.744,287.455,376.058,275.5,359.071,273ZM203.135,321l-11,6c-3.46,10.682-2.5,17.987,2,27,10.333,3.233,18.8,3.475,26.988-2,4.954-10.451,4.072-19.178-2-28Zm119.95,0-9,4c-5.237,8.316-5.325,16.761-2,27,9.111,5.754,20,6.01,28.988,0,4.735-10.547,4.045-18.98-2-28ZM264.11,346c-12.751,8.531-49.169,38.009-17.993,59,37.694,25.379,42.679-10.337,55.977-26C294.37,360.468,288.868,347.546,264.11,346Z"/>
</svg>
