<svg xmlns="http://www.w3.org/2000/svg" width="530" height="530" viewBox="0 0 530 530">
  <defs>
    <style>
      .cls-1 {
        fill: #c3d8de;
        fill-rule: evenodd;
      }
    </style>
  </defs>
  <path id="形状_328_1" data-name="形状 328 1" class="cls-1" d="M226.374,4.031c66.3-.491,111.348,6.342,156.13,23.993,122.29,48.2,202.123,257.8,96.08,395.883-1.423-1.677-43.875,44.743-55.046,52.984-33.843,24.966-128.477,73.252-205.171,43.987H196.349C118.079,487.55,55.406,442.256,26.208,376.92-39.3,230.327,39.015,94.391,133.3,41.02c-1.5-1.324-1.8-1.122,0-2L196.349,10.03C210.408,6.348,217.6,10.925,226.374,4.031ZM304.439,142.99c-42.891,27.059-16.488,83.929,29.024,62.981C367.156,190.464,356.188,141.285,304.439,142.99ZM374.5,196.974l-34.028,29.991c-24.522,13.024-61.558-20.452-73.061-23.993-47.616-14.658-91.275,13.24-95.079,44.987l10.008,8c25.1-1.706,34.783-26.106,62.052-29.991l6,8-24.02,51.984v-4c-9.137,12.394-30.715,53.746-60.05,46.986-12.229-2.818-25.828-9.846-39.032-1l-3,12c55.227,67.22,102.328-26.179,142.118,0l-4,1c27.842,6.133,42.464,55.174,62.052,76.977,76.612-5.411-39.5-105.878-43.036-109.967l4-15,2,5q9.006-19.992,18.015-39.988c61.727-10.121,64.431-6.619,88.073-46.986l-4-9C385.657,197.951,382.894,196.821,374.5,196.974Z"/>
</svg>
