<svg xmlns="http://www.w3.org/2000/svg" width="530" height="530" viewBox="0 0 530 530">
  <defs>
    <style>
      .cls-1 {
        fill: #e7c03e;
        fill-rule: evenodd;
      }
    </style>
  </defs>
  <path id="形状_319_1" data-name="形状 319 1" class="cls-1" d="M228.125,4.031c135.646-1.524,203.185,36,255.893,108.994q14.991,28.5,29.987,57c15.278,21.726-.563,41.383,11,70q0.5-5.5,1-11v71.995q-1-5-2-10C524.842,356.9,465.759,468.7,418.045,478l4,1c-29.97,21.781-70.354,30.885-111.954,47H275.105c-71.05,0-109.08-18.79-148.937-40-0.883-.469-0.986-1.168,0-1l-12-8q-0.5-.5-1-1c-25.315-14.11-38.441-34.663-56.976-57l-7-8-3-10c-12.195-10.4-24.159-40.774-24.99-50l-2-5c-4.083-29.115-23.706-79.7-11-122.993C26.89,159.415,51.88,117.16,77.188,86.026l14.994-17,43.981-31C150.988,28.424,221.078,12.841,228.125,4.031ZM127.167,123.024l-6,3v6q1,1,2,2l23.99,1c10.805,39.651,26.826,81.549,26.988,126.993,3.13-2.49.4-1.745,4,0q1,12,2,24l2-4c8.649,20.1,8.45,62.217,22.99,73,15.988,11.851,163.15,18.319,187.922,6l-5-2c5.354-2.255,4.479-.912,5-8l-2-2-180.925-2-1-21c-4.27,2.6-.309,1.73-5,0,19.674-14.373,57.631-1.267,85.964-9h-10l2-2c31.618-5.842,109.456,8.341,121.949-17,10.109-20.5.18-59.742,11-81l2,4c0.217-12.259-6-46-6-46-28.3-20.438-144.818-10-193.919-10l-46.98-1c-5.7-11.01-6.1-27.625-11-41H127.167ZM519,191.02h0Zm0,145.991h0Zm-312.869,53-8,14,8,15c9.541,0.509,17.029-.172,21.991-4,5.337-4.948,5.611-11.158,3-19C224.45,391.362,218.649,389.591,206.134,390.008Zm150.937,0c-6.91,5.069-11.053,7.572-11,20q2.5,3.5,5,7c8.364-.041,16.938,2.167,25.989-2,3.73-5.994,4.442-11.217,2-19C372.957,391.732,368.44,389.717,357.071,390.008Z"/>
</svg>
