<?xml version="1.0" standalone="no"?><!DOCTYPE svg PUBLIC "-//W3C//DTD SVG 1.1//EN" "http://www.w3.org/Graphics/SVG/1.1/DTD/svg11.dtd"><svg t="1741663933345" class="icon" viewBox="0 0 1024 1024" version="1.1" xmlns="http://www.w3.org/2000/svg" p-id="4110" xmlns:xlink="http://www.w3.org/1999/xlink" width="128" height="128"><path d="M512 512m-512 0a512 512 0 1 0 1024 0 512 512 0 1 0-1024 0Z" fill="#8583D8" p-id="4111"></path><path d="M543.158857 651.776v74.715429h51.163429c9.069714 0 17.042286 5.558857 20.589714 13.750857l7.533714 18.797714a22.089143 22.089143 0 0 1-20.589714 30.354286h-144.822857a22.198857 22.198857 0 0 1-20.589714-30.573715l7.533714-18.797714a22.601143 22.601143 0 0 1 20.845714-13.531428h48.457143v-74.678858c-4.278857-1.645714-9.362286-4.534857-17.92-10.313142l-67.547429-44.726858c-17.042286-11.337143-22.564571-15.945143-27.904-21.942857a61.257143 61.257143 0 0 1-12.397714-20.114285c-2.56-6.656-4.205714-12.982857-6.107428-28.379429h-10.934858a100.242286 100.242286 0 0 1-98.742857-82.797714l-14.848-84.114286A42.057143 42.057143 0 0 1 256 350.281143c0-28.781714 23.478857-52.260571 52.48-52.260572h47.908571L354.742857 282.806857a22.125714 22.125714 0 0 1 19.748572-24.356571c0.621714-0.219429 1.499429-0.219429 2.194285-0.219429L682.020571 256c12.141714 0 22.125714 9.728 22.345143 21.942857 0 0.877714 0 1.755429-0.219428 2.413714l-1.901715 17.700572h49.737143a52.443429 52.443429 0 0 1 51.565715 61.549714l-14.811429 84.150857a100.242286 100.242286 0 0 1-98.742857 82.797715h-12.251429c-1.974857 17.481143-3.730286 24.283429-6.582857 31.670857-3.108571 7.753143-7.314286 14.628571-13.056 20.845714-5.778286 6.180571-11.52 10.825143-29.476571 21.906286l-67.949715 41.618285a112.530286 112.530286 0 0 1-17.517714 9.142858z m137.801143-155.099429h8.996571c34.121143 0 63.341714-24.576 69.302858-58.221714l14.848-84.114286c0.219429-1.353143 0.438857-2.706286 0.438857-4.022857a22.674286 22.674286 0 0 0-22.564572-22.564571h-52.918857l-18.102857 168.923428z m-302.811429 0l-18.505142-169.033142a14.994286 14.994286 0 0 1-1.572572 0.109714H308.260571a22.674286 22.674286 0 0 0-22.601142 22.564571c0 1.316571 0.219429 2.669714 0.438857 4.022857l14.848 84.114286c5.961143 33.645714 35.218286 58.221714 69.302857 58.221714h7.899428z m155.282286-162.084571l-27.428571 48.713143-51.821715 10.605714 36.534858 41.216-6.217143 54.893714 48.932571-24.356571 47.177143 24.356571-5.997714-54.893714 36.571428-41.179428-51.858285-10.605715-25.892572-48.749714z" fill="#FFFFFF" p-id="4112"></path></svg>