<svg xmlns="http://www.w3.org/2000/svg" width="550" height="550" viewBox="0 0 550 550">
  <defs>
    <style>
      .cls-1 {
        fill: #9ecafb;
        fill-rule: evenodd;
      }
    </style>
  </defs>
  <path id="形状_316_1" data-name="形状 316 1" class="cls-1" d="M353.18,9.694v1.124c2,0.874,10.922,4.369,12.46,4.027q0.375,0.983.749,1.967c2.288,0.31,11.979,3.434,12.46,5.057,1.792-.168,4.418-0.268,5.809.281q0.093,0.562.187,1.124c6.576,1.782,11.766,5.018,17.332,7.772,1.873,0.927,5.2,1.706,6.464,3.278l-4.5-.094v0.094l18.081,9.458,5.434,2.528c3.136,2.2,7.469,5.236,11.523,6.274v0.094l-4.122.094c0.423,1.831,4.778,2.7,6.183,3.746,5.639,4.2,11.024,11,16.395,15.826C465,78.954,471.813,86.512,478.53,93.785c4.777,5.173,11.557,10.065,15.645,15.732,3.619,5.015,5.617,11.869,8.994,17.136h0.187q0.047-2.154.094-4.307h0.187c7.657,15.438,15.448,30.945,23.421,46.352,1.386,2.677,5.831,15.256,7.5,16.2a24.49,24.49,0,0,0,.469,6.086l0.093,5.806a2.462,2.462,0,0,1,1.4.187c-0.034,2.685,2.439,8.355,3.748,9.926h0.187q0.095-1.638.188-3.277,0.281,8.989.562,17.979c0,1.357-.164,6.383.468,6.93l0.375,0.281c0.031-.031.062-0.063,0.094-0.094a4.493,4.493,0,0,1-.188-1.685l0.281,0.093a3.615,3.615,0,0,0,1.874,1.5c0.071,1.569,1.019,5.13,1.967,6.086l0.937,0.094q0.141,9.5.281,19.009c0,18.582-.276,37.748-0.281,56-2.315.029-1.658,4.567-2.81,6.181-0.476.666-1.748,1.32-2.342,1.966l-0.282-1.779h-0.187q-0.375,12.453-.749,24.909c-1.235-.073-4.309,10.169-4.778,12.173-2.76,1.237-.015,5.764-2.061,6.649-2.041,4.421-3.565,8.773-5.34,13.2L522.28,385.2a72.087,72.087,0,0,1-4.777,10.488c-4.658,7.842-8.575,16.217-12.648,24.535-2.158,4.407-5.161,8.749-7.214,13.484q-0.093-2.013-.187-4.026H496.8c-2.078,6.874-9.971,12.951-14.521,17.885l-3.747,3.371c-0.868,1.3.26,3.83-.281,5.525l-3.092,3.465c-1.222.909-3.835-.238-5.34,0.187-1.47.415-2.332,2.664-3.841,3.371L465.6,469.29l-3.091,3.184c-1.809.936-4.589-.552-5.9,0.562-6.789,5.755-12.06,15.082-21.361,18.073,0.032,0.156.063,0.312,0.094,0.468l0.188,0.187,4.122-.093c-0.032.093-.063,0.187-0.094,0.281l-22.953,11.8v0.561h3.935v0.094L384.47,522.76c-4.277,1.58-8.036,2.916-12.366,4.682q-0.141.656-.281,1.311c-1.754-.41-4.452-0.17-5.527-0.562-0.222,2.567-10.289,4.588-12.835,5.712a1.243,1.243,0,0,1-.469,1.124,14.889,14.889,0,0,0-6,.468h-5.809c-0.378.222-.591,0.975-1.124,1.218l-11.336,3.558q-0.141.515-.281,1.03l-22.391.375H240.29l-18.081-.281-1.031-1.218c-3.069-1.256-10.535-2.22-11.991-4.682-4.663,0-7.625-.889-11.992-0.468-1.1-3.5-11.811-2.7-13.116-6.555l-5.527.281q-0.141-.609-0.281-1.217a299.3,299.3,0,0,1-37.943-17.98l-10.68-5.244,4.123-.093c-0.032-.125-0.063-0.25-0.094-0.375l-23.328-12.08v-0.093l4.591-.094v-0.468c-5.631-1.75-8.313-5.769-12.179-9.177l-4.591-3.839c-1.626-1.663-3.186-4.188-5.153-5.432-1.019-.644-4.473.736-5.621-0.281l-3.185-3.558c-0.685-1.65.76-4.258-.187-5.431l-3.841-3.278c-1.517-.36-3.862.2-5.246-0.187l-3.185-3.558q-0.094-2.716-.187-5.432l-6-5.712c-2.645-3.929-6.854-6.479-9.743-10.113l-2.717-5.806a0.567,0.567,0,0,0-.562.375q-0.047,1.918-.094,3.839c-4.376-7.416-7.184-15.329-11.617-22.755a310.9,310.9,0,0,1-16.395-32.026c-1.048-2.349-7.9-18.672-8.994-19.009q0.047-2.81.094-5.619l-1.405-1.217c-0.907-2.015-2.853-12.129-4.778-11.8L8.608,315.9H8.421l-0.187,1.779-0.281-.093A4.646,4.646,0,0,0,5.891,315.9a14.257,14.257,0,0,0-1.78-6.087H3.081L2.706,272.08,2.8,256.16l0.375-21.35a0.839,0.839,0,0,0,1.124-.281,13.006,13.006,0,0,0,1.686-5.9c1.027-.217,1.454-1.035,2.155-1.592l0.094,1.779,0.468-.094,0.749-21.444c1.722,0.213,3.357-9.572,5.621-10.582-0.019-1.161.373-11.754,0.468-11.892l1.218-.468,1.686-5.806c1.81-4.053,4.206-8.326,6-12.642l12.366-24.44,7.12-13.766c0.811-1.549,1.362-4.143,2.717-5.15q0.047,2.154.094,4.307l2.342-4.494c2.378-4.253,4.148-8.546,6.745-12.736l9.556-9.551c3.322-4.675,8.136-8.63,12.273-12.548L97.046,67.846,109.413,56.14c1.127-.727,5.948-2.1,5.527-3.465l-3.935-.094,0.562-.281c3.825-1.078,7.919-3.843,10.868-5.993l23.514-11.893V34.135l-4.4.187,0.188-.375,18.174-9.083c2.7-1.046,4.716-.756,6.184-3l5.34,0.094c2.392-3.631,12.511-3.167,13.3-7.117,1.053,0.159,11.039-3.234,12.46-4.12V9.694c2.8,0.011,4.611,0,6.277-.562l6-.094c1.229-2.91,11.623-2.732,12.647-5.712,23.394,0.02,48.062-.468,72.137-0.468,9.654,0,20.152-.556,29.23.468l4.871,0.094q0.141,0.515.281,1.03l11.243,3.558,1.5,1.217,5.527-.094A23.5,23.5,0,0,0,353.18,9.694ZM497.735,111.951q0.094,0.234.187,0.468l-0.093.094C497.8,112.326,497.766,112.138,497.735,111.951ZM162.344,128.526c-2.357,1.814-3.261,2.956-3.279,7.3l-0.093,2.435,1.967,2.06h-1.405v0.749c2.9,2.443,7.137,3.063,10.961,4.588,0.625,0.25,1.2,1.172,1.686,1.311l5.9,0.094q0.094,0.563.188,1.124c2.7,0.76,11.577,3.106,12.647,5.056h5.809c0.062,0.437.124,0.875,0.187,1.311,2.445,0.452,11.835,3.35,12.741,4.963l5.9,0.188q0.095,0.609.188,1.217c7.614,1.919,8.676,3.912,11.242,10.863l1.218,0.281q-0.048,7.911-.094,15.825l-5.9,1.873-0.469,1.03-12.366.094L197.663,196.6v0.187l0.094,0.094,1.874,0.187c0.014,2.165-1.62,5.137-2.9,6.461q0.28,55.1.562,110.217c0.677-1.233.307-4.248,0.281-5.993l0.281,0.094a36.389,36.389,0,0,1,4.4,6.742h0.187q0.094-2.2.188-4.4,0.327,37.688.655,75.382c0.97,4.177,4.6,8.219,6.277,11.986q0.048,1.452.094,2.9c0.742,1.263,2.431,1.663,3,3.184a15.232,15.232,0,0,1,4.122.375c0.964,0.245,2.944-.377,4.4-0.375v-0.375l-0.937-.187,1.031-.094c1.867,4.471,6.3,2.381,8.525,6.274l-1.78.188v0.281H228.3l81.412,0.093,3.279-1.873a35.906,35.906,0,0,1,9.087-3.277c0.3-1.483,6.458-4.083,7.87-5.431,2.148-2.051,2.547-5.7,4.4-7.585l1.312-.468c1.02-1.088,1.174-5.206,2.155-6.649l2.342-2.341c1.064,0.549.358-4.9,0.562-6.555l0.093-22.662q0.141-32.115.281-64.238,0.235-15.45.469-30.9c0.905,0.1,1.774-3.373,2.436-4.308l2.342-2.341h0.093c0.272,1.471-.45,4.9.469,5.806v-0.281q0.141-12.406.281-24.815V203.44A20.865,20.865,0,0,0,341,194.169c-5.9-4.613-17.135-3.371-27.543-3.371l-69.889-.187-2.811-5.432q-0.093-11.189-.187-22.38c-0.272-1.167-1.767-2.047-2.53-2.809-5.72-5.718-13.119-9.3-22.2-11.706l-0.375-1.311-5.9-.093c-1.036-1.909-10.042-3.909-12.647-4.87q-0.141-.655-0.281-1.311l-5.809-.093c-0.684-1.536-10.253-4.385-12.553-4.87a3.1,3.1,0,0,0-.469-1.4h-5.808l-0.094-.188c-1.091-1.715-4.607-1.647-6.464-2.622Zm191.492,18.447c-9.766,3.555-19.165,8.973-25.67,15.92-0.046,4.978-1.027,12.809,1.967,14.889,2.1,1.46,19.166-.374,23.234.468l0.375,1.311,6.183,1.966v-0.28q0.094-.8.187-1.592l2.717,5.431,2.9,2.715v5.432l0.093,16.387c0,1.992-.322,4.854.281,6.368l0.75,0.093a13.784,13.784,0,0,0,2.061,6.181l8.994-.094c7.209-1.536,17.33-12.52,19.486-19.29l0.375-15.451q-0.141-7.725-.281-15.451l-1.5-.281c-0.43-4.2-3.074-7.79-4.5-11.237l-0.281.094-0.094.093q-0.046.8-.094,1.592l-5.9-5.712-6.277-3.184c0.244-.911,2.741-0.325,3.748-0.281-0.448-1.41-8.452-4.191-10.493-4.588v-1.218l-0.094-.093Zm23.983,5.432,0.656,0.093Zm158.42,40.734h0Zm0.375,1.124c0.031,0.093.063,0.187,0.094,0.281C536.677,194.45,536.645,194.356,536.614,194.263Zm0.469,1.592v0Zm1.124,3h0Zm0.375,1.218v0Zm0.468,1.779h0Zm-326.678,1.311,12.741,0.187,3.092,2.9,0.281-.094,0.093-.842,0.094,0.093,5.246,10.207q0.048,2.715.094,5.431l0.375,10.395c-0.559,1.477-2.83,2.515-4.029,3.465-3.233,2.561-5.084,5.486-10.961,5.337-0.057-.829-8.235-4.42-9.649-5.244l0.093-.655,1.312,0.093c0.031-.093.062-0.187,0.094-0.281v-0.187c-4.295-3.4-.486-14.773-2.061-21.069q-1.547-1.639-3.092-3.278l-2.9-6.087,0.375-.187Zm34.944,0.468a10.646,10.646,0,0,0,2.811-.468h63.237c7.012,0,19.822-1.552,21.36,3.745v11.144q-0.094,6.882-.187,13.765c-0.643,1.241-2.41,2.18-3.654,2.9l-2.53,2.81-6,2.9-34.945-.093-34.569-.187,3.934-.094v-0.187c-3.057-1.8-6.8-2.763-9.462-4.963l0.188-.656h1.873v-0.094l-1.686-5.618-0.75-.281c-0.291-3.2.115-7.287-.374-10.207-2.358-.468-6.3-7.429-5.434-11.144l6.09-2.06Zm-237.865.094h0ZM247.6,237.151v0Zm2.342,1.405,0.469,0.187Zm0.75,0.468h0Zm84.5,146.456v0Zm-125.35,8.241q0.048,0.281.094,0.562Q209.89,394,209.842,393.721Zm0.469,0.843,0.187,0.655Zm0.281,0.749,0.187,0.655Zm0.562,1.123c0.062,0.157.125,0.313,0.187,0.469C211.059,396.6,211.182,396.9,211.154,396.436Zm0.468,1.124h0Zm3.092,3.465,0.749,0.187Zm1.312,0.468,0.843,0.094Zm1.78,0.468h0.468c0.031,0.125.062,0.25,0.094,0.375H217.9Zm0.843,0.562,1.311,0.188ZM276.827,547.2l1.405,0.093Z"/>
</svg>
