<svg xmlns="http://www.w3.org/2000/svg" width="530" height="530" viewBox="0 0 530 530">
  <metadata><?xpacket begin="﻿" id="W5M0MpCehiHzreSzNTczkc9d"?>
<x:xmpmeta xmlns:x="adobe:ns:meta/" x:xmptk="Adobe XMP Core 9.0-c001 79.c0204b2, 2023/02/09-06:26:14        ">
   <rdf:RDF xmlns:rdf="http://www.w3.org/1999/02/22-rdf-syntax-ns#">
      <rdf:Description rdf:about=""
            xmlns:xmp="http://ns.adobe.com/xap/1.0/">
         <xmp:CreatorTool>Adobe Photoshop 24.3 (Windows)</xmp:CreatorTool>
      </rdf:Description>
   </rdf:RDF>
</x:xmpmeta>
                                                                                                    
                                                                                                    
                                                                                                    
                                                                                                    
                                                                                                    
                                                                                                    
                                                                                                    
                                                                                                    
                                                                                                    
                                                                                                    
                                                                                                    
                                                                                                    
                                                                                                    
                                                                                                    
                                                                                                    
                                                                                                    
                                                                                                    
                                                                                                    
                                                                                                    
                                                                                                    
                           
<?xpacket end="w"?></metadata>
<defs>
    <style>
      .cls-1 {
        fill: #736420;
        fill-rule: evenodd;
      }
    </style>
  </defs>
  <path id="形状_335_1" data-name="形状 335 1" class="cls-1" d="M244,2.031c100.9-1.359,151.4,29.611,201,73,14.614,12.782,32.755,25.97,38,46q0.5-2,1-4c59.114,73.221,52.354,222.632,0,292.983l-1-4c-5.519,21.323-26.813,41.29-45,53l-37,32c-76.887,46.485-209.928,42.6-280-7C76.372,452.412-32.346,329.643,10,222.018v-21c8.245-29.732,22.506-68.646,41-88.994,37.245-40.979,72.311-75.582,134-97.994ZM180,111.025l-7,9c-0.719,54.7,111.993,58.575,118,27q0.5,2,1,4c7.315-9.99,12.36-19.165,12-37a35.112,35.112,0,0,0-22-1q-3,5-6,10c-11.694-3.746-52.319-26.946-68,0C193.962,119.528,196.994,111.721,180,111.025Zm17,72c-15.486,17.15-40.25,26.722-56,44-16.783,18.408-34,53.136-34,91.994-0.008,96.849,56.677,97.19,154,97q-1-2.5-2-5c-16.758-1.51-50.7-64.176-39-101.994,13.4-43.3,47.466-86.336,113-84.995C315.689,180.306,259.77,182.023,197,183.02Zm116,60c-6.077,5.7-11.1,3.07-21,6-15.878,4.7-42.082,30.433-47,46-25.675,81.244,35.917,138.012,118,115.993v-1l-5-1C434.069,400.358,437.915,240.769,313,243.017Zm9,36,15,5q2,18,4,36c16.212-.625,29.149.01,38,6l3,6q-2.5,7.5-5,15l-35,4-2,2c0.32,12.451-.388,24.506-3,33H315c-2.821-9.29-3.4-21.854-6-34-11.049-4.066-26.276-3.881-35-8q0.5-11,1-22l2-2,33-2c-0.424-13.894.359-26.081,4-35Q318,281.014,322,279.015ZM0,527l530,1Z"/>
</svg>
