<svg xmlns="http://www.w3.org/2000/svg" width="530" height="530" viewBox="0 0 530 530">
  <defs>
    <style>
      .cls-1 {
        fill: #fac66c;
        fill-rule: evenodd;
      }
    </style>
  </defs>
  <path id="形状_318_1" data-name="形状 318 1" class="cls-1" d="M227.112,0.031C388.882-1.72,469.78,63.557,510.978,169.071q6,18,11.994,36.009v28.006c3.889,10.531,9.331,31.2,6,50.012-10.19,57.516-36.18,102.886-53.974,139.033q-1-2-2-4c-11.632,54.387-175.212,139.925-275.87,101.024-29.678-11.47-69.046-23.487-88.958-41.01C16.542,397.515-51.7,243.938,52.194,103.056c0.843,2.7.537,0.741,2,2,12.872-40.081,87.6-77.771,118.944-91.021C188.352,7.6,213.263,8.373,227.112.031ZM161.143,163.07c-11.234,6.843-18.1,9.11-17.992,27.006,15.422,14.668,65.115,22.422,43.979-22C180.349,163.927,173.362,162.656,161.143,163.07Zm62.97,0-20.99,48.011v-4c-3.97,5.084-11.114,16.582-9,21,3.957,6.189,10.214,7.618,20.99,7,2.837-6.769,13.758-9.3,20.99-12l3,3q-9,15.5-17.992,31.007l6,14-12,3q1,7,2,14c15.978,2.985,47.291-3.9,57.973,5q-1,19-2,38.008c-9.967,2.68-18.615-.482-24.988-4q-3-13-6-26.007l-24.989,1-2,2c-2.911,76.726,68.786,57.78,106.95,34.008l-4-1,14.993-6q1.5,1.5,3,3c-1.323,23.075,11.752,10.146,23.989,12v1c-0.97,24.684-27.191,7.831-46.978,16l-2,2q0.5,6.5,1,13l2,2c21.086,0.188,53.855,3.915,66.968-5,20.821-14.157,36.238-139.565,11.994-176.042-25.8-38.82-90.648-18.893-133.936-12-1.681-9.516-5.12-16.359-3-18C248.592,163.147,238.705,162.526,224.113,163.07Zm74.965,30.007c21.516-.607,51.041-2.919,63.97,6,17.6,12.144,7.569,108.849,0,126.03l-4,1c-9.529-7.55-8.108-22.857-16.992-30.007-13.481,5.161-15.927,31.093-30.985,29.007h-4q-0.5-17.5-1-35.008l40.981-4-1-13-2-2-37.982-1-1-26.006c9.759-3.478,25.917-3.252,39.981-3q0.5-1,1-2l1-14-2-2H277.088l-2-3q0.5-10,1-20ZM151.147,224.084l-8,20,28.987,21-4,1c7.9,2.2,11.736,8.514,13.994,10,7.9,37.773-45.569,45.308-50.976,77.019,11.049,8.3,20.424,13.211,25.988,20l2-1c23.358-43.788,46.714-60.351,32.984-117.027l-2,4C184.835,245.8,168.943,224.609,151.147,224.084Zm111.948,17h6q2.5,5,5,10v19H240.105l-1-1C245.984,257.14,252.177,248.979,263.1,241.088Z"/>
</svg>
