<?xml version="1.0" standalone="no"?><!DOCTYPE svg PUBLIC "-//W3C//DTD SVG 1.1//EN" "http://www.w3.org/Graphics/SVG/1.1/DTD/svg11.dtd"><svg t="1741663922043" class="icon" viewBox="0 0 1024 1024" version="1.1" xmlns="http://www.w3.org/2000/svg" p-id="3156" xmlns:xlink="http://www.w3.org/1999/xlink" width="128" height="128"><path d="M512 512m-512 0a512 512 0 1 0 1024 0 512 512 0 1 0-1024 0Z" fill="#F59292" p-id="3157"></path><path d="M219.428571 405.357714v37.595429h584.886858v-37.595429H219.428571z m321.28 199.68h-32.914285l-35.328 69.376h33.718857l34.523428-69.339428z m73.142858 0h-32.914286l-33.718857 69.376h33.718857l32.914286-69.339428z m136.448 0H652.8l-32.475429 69.376h95.817143l34.157715-69.339428zM735.670857 292.571429c18.541714 0.256 36.169143 8.045714 48.859429 21.540571 12.946286 13.677714 20.041143 31.890286 19.748571 50.724571v306.651429a72.557714 72.557714 0 0 1-19.748571 50.761143c-12.690286 13.494857-30.354286 21.248-48.859429 21.504H288.877714a68.498286 68.498286 0 0 1-48.896-21.504 72.557714 72.557714 0 0 1-19.748571-50.761143V364.836571A70.546286 70.546286 0 0 1 288.475429 292.571429h447.195428z" fill="#FFFFFF" p-id="3158"></path></svg>