<svg xmlns="http://www.w3.org/2000/svg" width="530" height="530" viewBox="0 0 530 530">
  <defs>
    <style>
      .cls-1 {
        fill: #98a4fe;
        fill-rule: evenodd;
      }
    </style>
  </defs>
  <path id="形状_330_1" data-name="形状 330 1" class="cls-1" d="M223.262,0C375.121-1.3,452.64,54.444,493.389,141.966c11.885,25.525,46.821,100.622,32.016,146.966-9.015,28.217-12.69,55.295-22.011,76.982L478.382,414.9q-0.5-2-1-4c-51.479,68.025-95.9,89.763-181.086,113.973-51.909,14.753-114.134-13.868-144.068-23.994C72.563,473.932.159,388.948,0.156,261.938c0-27.761-1.724-54.036,6-74.982C34.6,109.856,77.049,69.239,135.22,28.993,153.386,16.425,211.132,10.722,223.262,0Zm20.009,170.96c-23.284,24.072-57.679,33.544-86.04,55.986v17l4,1c21.427,11.63,201.048,1.635,213.1-7q-0.5-2.5-1-5c-23.33-23.237-89.832,1.87-124.059-11C248.159,211.6,250.7,176.294,243.271,170.96ZM166.235,289.931c-5.536,5.758-8.96,8.177-9,20l3,3,117.055,2q0.5,24.992,1,49.988l9,3,19.009-11c-2.165-3.86-.564-4.509,8-7l10-5c-2.166-3.859-.565-4.508,8-7l40.019-25.994v-10l-3-8C323.668,280.055,224.531,289.826,166.235,289.931Z"/>
</svg>
