<svg xmlns="http://www.w3.org/2000/svg" width="530" height="530" viewBox="0 0 530 530">
  <defs>
    <style>
      .cls-1 {
        fill: #fec87b;
        fill-rule: evenodd;
      }
    </style>
  </defs>
  <path id="形状_333_1" data-name="形状 333 1" class="cls-1" d="M222.236,3c113.143-.376,158.315,17.779,206.841,53,17.178,12.468,59.954,58,59.954,58C515.055,147.274,529,192.773,529,251c0,125.548-42,191.706-109.915,236-37.7,24.587-79.653,41-152.883,41C104.309,528,48.064,441.344,4.4,320c-7.906-21.972-.285-113.114,5-130l19.985-48h1l1,6,8.993-24,1,4c8.08-41.612,90.886-97.1,123.9-109Zm126.9,141c-14.453,17.805-64.76,71.47-33.973,112,5,6.578,23.14,11.182,26.979,22,3.971,11.191-3.076,22.662-5,28v76c-1.8,5.761-4.95,8.054-5,18l8.994,8h6c12.212-7.178,15.584-232.814,7.994-264h-6Zm-129.9,10c-3.586,17.174-2.888,45.52-9.992,63l-7,4c-14-5.7-16.658-42.539-15.987-62l-5,2c-0.357,32.216-12.2,70.513,4,89l24.981,16c14.988,31.945-10.69,97.956-2,140l2,2,17.986-3q0.5-71.493,1-143c31.538-13.357,40.542-53.153,28.977-101l-1-1-6,5c-9.893,19.66,2.616,43.353-11.991,57l-10.992-3C228.074,214.47,221.741,157.653,219.238,154Z"/>
</svg>
