<svg xmlns="http://www.w3.org/2000/svg" width="530" height="530" viewBox="0 0 530 530">
  <defs>
    <style>
      .cls-1 {
        fill: #ff9397;
        fill-rule: evenodd;
      }
    </style>
  </defs>
  <path id="形状_325_1" data-name="形状 325 1" class="cls-1" d="M222.236,2.721c25.94-.4,76.548-7.53,95.926,3l-5,1c34.023-.644,57.769,9.6,75.941,25.02,12.361,10.489,31.989,13.99,48.962,27.022C488.193,97.25,527.992,160.276,528,262.934v63.051c-17.552,53.263-38.043,94.9-67.948,126.1L403.1,495.124l-20.983,10.008c-16.036,7.779-125.788,47.177-162.875,21.017h5v-1c-89.852.513-161.9-78.86-192.851-131.107L10.4,344q-0.5-14.01-1-28.023C-0.973,295.4.093,236.553,9.4,215.9V192.876l23.981-59.048c22.84-30.483,63.47-76.005,95.926-99.081C150.022,20.02,206.837,15.024,222.236,2.721ZM206.249,151.843c7.78,9.407,16.045,6.4,26.979,15.012,52.268,41.163,53.892,1.7,100.922-14.011v-1h-127.9Zm-35.973,12.01-3,1q-0.5,110.578-1,221.18l19.985,18.015H264.2c29.569,0,73.965,5.541,89.93-9.007,13.089-11.927,16.417-191.112,8.993-224.184l-3-1-53.959,30.024,4,1L269.2,221.9C257.308,210.89,182.533,165.63,170.276,163.853Zm52.959,72.059c27.478-.877,29.62,9.494,40.969,24.019l7.994-2c9.661-9.665,15.81-30.2,38.969-20.017-1.289,19.882-15.473,20.551-21.983,37.031v1h3l30.976,5,5,15.013c-4.4,2.4-4.727,3.5-6,9.007-8.266,3.151-33.3,5.589-39.969,3l2,6c19.4-.988,36.237-2.311,42.967,10.008-3.622,25.258-24.85,14.576-45.964,22.018q-1,14.01-2,28.023l-26.979-1q-2-14.511-4-29.024c-15.956.629-28.289-.111-36.971-6-2.4-5.7-4.008-14.292-2-22.018l2-2,38.97-2v-1l-37.971-7.006c-2.992-6.184-5.341-15-3-24.019l2-2c10.334,0.294,32.845.729,34.973-5-7.234-.53-16.5-14.216-17.986-23.019q-1,2-2,4l-6-11.009Zm87.932,0c4.462,2.089,2.652,1.768,4,4l-1,1Q312.667,238.414,311.167,235.912Z"/>
</svg>
