<svg xmlns="http://www.w3.org/2000/svg" width="530" height="530" viewBox="0 0 530 530">
  <defs>
    <style>
      .cls-1 {
        fill: #bebfeb;
        fill-rule: evenodd;
      }
    </style>
  </defs>
  <path id="形状_326_1" data-name="形状 326 1" class="cls-1" d="M230.792,6C345.144,5.1,400.5,34.591,450.924,87c11.286,11.729,24.915,19,29.018,37q0.5-2,1-4c36.2,50.018,63.659,174.014,26.016,243-23.143,42.413-43.734,70.9-80.048,106-3.222,3.114-11.7,6.791-7,9-26.818,18.114-72.513,33.669-117.071,47H267.814c-67.956.006-95.305-12-131.079-31-1.865-.991-10.4-5.4-4-5,0,0-23.275-8.359-18.011-12-28.369-16.675-46.332-36.672-64.038-64v4c-58.7-77.028-63.109-214.381,0-303l1,4c9.565-43.393,78.523-69.151,118.071-96C185.728,11.156,216.153,17.943,230.792,6ZM146.741,32h0Zm50.03,147c-4.894,4.978-34.212,17.565-35.021,16-27.515,27.208-81.683,141.328-27.016,166,45.127,20.366,71.791-38.129,89.054-49,12.287-7.738,27.358-8,48.029-8,22.539,0,34.575,2.718,47.028,12h-4c21.31,15.869,73.927,82.8,102.062,29,35.286-67.473-43.863-202.023-108.065-154l4,1c-14.165,3.389-34.733,24.944-55.033,17C234.521,199.887,226.113,179.313,196.771,179Zm0,47h6l6,24,21.012,3c0.436,8.5-.333,11.113-4,15l-17.01,1q-2.5,11.5-5,23H190.768v-3q-2-9.5-4-19l-23.013-4v-7c6.442-6.124,12.609-9.5,24.014-11q2-10.5,4-21Zm121.073,12,17.01,6c3.463,10.075,3.045,18.6-2,27-15.638,5.109-30.449.124-31.018-17l9-13Zm49.03,12,7,1,11.007,18-4,12c-6.856,7.065-19.848,5.32-28.017,1l-4-15C356.652,257.534,357.785,257.875,366.874,250Z"/>
</svg>
