<svg xmlns="http://www.w3.org/2000/svg" width="530" height="530" viewBox="0 0 530 530">
  <defs>
    <style>
      .cls-1 {
        fill: #f2cf94;
        fill-rule: evenodd;
      }
    </style>
  </defs>
  <path id="形状_329_1" data-name="形状 329 1" class="cls-1" d="M229.438,0.031c141.7-1.688,203.785,46.675,258,124.015v-4c15.975,23.165,27.735,54.3,36,84.01v40c17.137,43.4-9.348,112.807-25,140.016-46.629,81.067-88.079,110.616-202,143.017-51.585,14.672-125.316-15.5-152-30-72.491-39.388-87.895-77.113-127-137.016-9.4-14.4-2.9-33.648-10-51.006-8.674-21.21-8.427-68.8,0-90.011l6-39,30-60.007v4c44.993-62.923,64.623-70.749,127-108.013C187.063,6.1,214.25,10.835,229.438.031Zm116,150.018-128,50.006c2.778,14.958,8.225,24.054,1,39l-66,3c-9.016,33.74,15.912,85.416,32,94.011h91l72-1c11.718-15.717,46.315-55.1,30-94.011h-67c-4.767-15.745-6.3-52.195-2-71.009l41-17C347,149.713,349.718,151.9,345.437,150.049Zm-14,6,3,1-3,2v-3Zm-37,18c10.871,4.175,9.807,50.821,6,65.007l-2,2c-7.475.3-11.115-.517-15-3q0.5-29.5,1-59.007Zm-16,7h4q-1,2-2,4Zm-14,5h9q-1.5,26.5-3,53.006l-4,2-11-4c-2.171-13.593-.6-36.959,3-50.006C261.651,187.481,260.5,188.634,264.437,186.053Zm-30,12,14,3q-1,18.5-2,37-0.5,1.5-1,3l-14-1-2-2v-37Zm-13,162.019-2,4h3c17.4,7.744,73.68,4.906,90-1v-1Z"/>
</svg>
