<?xml version="1.0" standalone="no"?><!DOCTYPE svg PUBLIC "-//W3C//DTD SVG 1.1//EN" "http://www.w3.org/Graphics/SVG/1.1/DTD/svg11.dtd"><svg t="1741663935708" class="icon" viewBox="0 0 1024 1024" version="1.1" xmlns="http://www.w3.org/2000/svg" p-id="4269" xmlns:xlink="http://www.w3.org/1999/xlink" width="128" height="128"><path d="M512 512m-512 0a512 512 0 1 0 1024 0 512 512 0 1 0-1024 0Z" fill="#E6B673" p-id="4270"></path><path d="M598.308571 603.099429s-15.616 19.126857-39.131428 0c-23.405714-19.126857-104.228571-109.056-104.228572-109.056s-19.126857-23.04-40.850285 0-88.649143 122.075429-88.649143 122.075428-20.845714 35.657143-51.273143 0c-26.185143-30.683429-48.457143-17.554286-54.125714-13.312v134.509714c0 23.04 18.651429 41.691429 41.691428 41.691429h500.516572c23.04 0 41.691429-18.651429 41.691428-41.691429V369.810286a18.285714 18.285714 0 0 0-4.900571 1.828571l-200.740572 231.497143z m-305.590857-50.395429a48.64 48.64 0 0 0 44.617143-68.022857l85.321143-105.325714c4.790857 1.572571 9.874286 2.633143 15.177143 2.633142 7.314286 0 14.189714-1.718857 20.370286-4.608l74.605714 74.605715a48.018286 48.018286 0 0 0-2.633143 15.177143 48.64 48.64 0 1 0 97.353143 0c0-5.997714-1.243429-11.702857-3.218286-16.969143l116.260572-135.899429c4.644571 1.462857 9.545143 2.523429 14.738285 2.523429a48.64 48.64 0 1 0-48.64-48.64c0 6.217143 1.243429 12.141714 3.401143 17.590857l-115.858286 135.424a48.054857 48.054857 0 0 0-15.36-2.706286 48.274286 48.274286 0 0 0-17.225142 3.291429L484.937143 345.088a48.274286 48.274286 0 0 0 1.572571-11.739429 48.64 48.64 0 1 0-97.28 0c0 5.997714 1.206857 11.702857 3.181715 17.005715l-86.674286 107.008a48.018286 48.018286 0 0 0-13.019429-1.974857 48.64 48.64 0 1 0 0 97.316571z" fill="#FFFFFF" p-id="4271"></path></svg>