<?xml version="1.0" standalone="no"?><!DOCTYPE svg PUBLIC "-//W3C//DTD SVG 1.1//EN" "http://www.w3.org/Graphics/SVG/1.1/DTD/svg11.dtd"><svg t="1741663896692" class="icon" viewBox="0 0 1024 1024" version="1.1" xmlns="http://www.w3.org/2000/svg" p-id="1089" xmlns:xlink="http://www.w3.org/1999/xlink" width="128" height="128"><path d="M512 512m-512 0a512 512 0 1 0 1024 0 512 512 0 1 0-1024 0Z" fill="#69C0E8" p-id="1090"></path><path d="M782.043429 640.256c2.669714 7.899429 4.022857 16.018286 4.132571 24.32 0 77.129143-118.564571 139.629714-264.850286 139.629714s-264.886857-62.537143-264.886857-139.629714c0-7.68 1.170286-15.286857 3.474286-22.674286 21.796571 65.499429 130.267429 115.309714 260.790857 115.309715 131.584 0 240.786286-50.614857 261.339429-116.955429z m0-96.768c2.669714 7.899429 4.022857 16.018286 4.132571 24.283429 0 77.165714-118.564571 139.629714-264.850286 139.629714s-264.886857-62.500571-264.886857-139.629714c0-7.68 1.170286-15.286857 3.474286-22.674286 21.796571 65.536 130.267429 115.346286 260.790857 115.346286 131.584 0 240.786286-50.614857 261.339429-116.955429z m0-99.766857c2.669714 7.899429 4.022857 16.054857 4.132571 24.32 0 77.165714-118.564571 139.629714-264.850286 139.629714s-264.886857-62.500571-264.886857-139.629714c0-7.68 1.170286-15.286857 3.474286-22.674286 21.796571 65.536 130.267429 115.309714 260.790857 115.309714 131.584 0 240.786286-50.614857 261.339429-116.955428zM256.365714 359.716571c0-77.092571 118.601143-139.629714 264.886857-139.629714s264.850286 62.537143 264.850286 139.629714c0 49.883429-50.468571 96-132.425143 120.941715-81.956571 24.941714-182.930286 24.941714-264.886857 0-81.92-24.941714-132.388571-71.058286-132.388571-120.941715z" fill="#FFFFFF" p-id="1091"></path></svg>