<?xml version="1.0" standalone="no"?><!DOCTYPE svg PUBLIC "-//W3C//DTD SVG 1.1//EN" "http://www.w3.org/Graphics/SVG/1.1/DTD/svg11.dtd"><svg t="1741663901118" class="icon" viewBox="0 0 1024 1024" version="1.1" xmlns="http://www.w3.org/2000/svg" p-id="1407" xmlns:xlink="http://www.w3.org/1999/xlink" width="128" height="128"><path d="M512 512m-512 0a512 512 0 1 0 1024 0 512 512 0 1 0-1024 0Z" fill="#8CA8E6" p-id="1408"></path><path d="M350.464 325.412571c14.628571 0 26.441143-9.947429 26.441143-22.125714V241.517714c0-12.178286-11.812571-22.089143-26.441143-22.089143-14.628571 0-26.404571 9.874286-26.404571 22.089143v61.769143c0 12.178286 11.849143 22.125714 26.404571 22.125714z m162.121143 0c14.628571 0 26.404571-9.947429 26.404571-22.125714V241.517714c0-12.178286-11.849143-22.089143-26.404571-22.089143-14.628571 0-26.441143 9.874286-26.441143 22.089143v61.769143c0 12.178286 11.812571 22.125714 26.441143 22.125714z m207.250286-49.115428c5.010286 6.765714 7.936 14.701714 7.936 23.222857 0 24.502857-23.771429 44.397714-53.138286 44.397714s-53.138286-19.858286-53.138286-44.397714c0-8.521143 2.925714-16.457143 7.936-23.222857v-32.182857h-71.68v32.182857c5.010286 6.765714 7.936 14.701714 7.936 23.222857 0 24.502857-23.771429 44.397714-53.101714 44.397714-29.366857 0-53.174857-19.858286-53.174857-44.397714 0-8.521143 2.925714-16.457143 7.936-23.222857v-32.182857h-71.68v32.182857c4.973714 6.765714 7.936 14.701714 7.936 23.222857 0 24.502857-23.808 44.397714-53.174857 44.397714-29.330286 0-53.065143-19.894857-53.065143-44.397714 0-8.521143 2.925714-16.457143 7.899428-23.222857v-32.182857H292.571429a36.571429 36.571429 0 0 0-36.571429 36.571428V768a36.571429 36.571429 0 0 0 36.937143 36.571429l438.857143-4.498286a36.571429 36.571429 0 0 0 36.205714-36.571429V280.649143a36.571429 36.571429 0 0 0-36.571429-36.571429h-11.593142v32.219429zM341.321143 652.178286c0-14.08 11.410286-25.453714 25.490286-25.453715h290.377142a25.453714 25.453714 0 0 1 0 50.907429h-290.377142a25.453714 25.453714 0 0 1-25.453715-25.453714z m0-101.814857c0-14.08 11.410286-25.490286 25.490286-25.490286h290.377142a25.453714 25.453714 0 1 1 0 50.907428h-290.377142a25.453714 25.453714 0 0 1-25.453715-25.417142z m0-101.851429c0-14.043429 11.410286-25.453714 25.490286-25.453714h290.377142a25.453714 25.453714 0 0 1 0 50.907428h-290.377142a25.453714 25.453714 0 0 1-25.453715-25.453714z m333.312-123.099429c14.628571 0 26.441143-9.947429 26.441143-22.125714V241.517714c0-12.178286-11.812571-22.089143-26.441143-22.089143-14.592 0-26.404571 9.874286-26.404572 22.089143v61.769143c0 12.178286 11.812571 22.125714 26.404572 22.125714z" fill="#FFFFFF" p-id="1409"></path></svg>