<svg xmlns="http://www.w3.org/2000/svg" width="530" height="530" viewBox="0 0 530 530">
  <defs>
    <style>
      .cls-1 {
        fill: #c05f76;
        fill-rule: evenodd;
      }
    </style>
  </defs>
  <path id="形状_320_1" data-name="形状 320 1" class="cls-1" d="M239.137,0c288.478-2.6,383.32,325.183,176.917,477h4C238.187,623.553-66.783,437.709,10.244,188,35.307,106.751,89.7,58.614,168.17,17ZM179.165,109c-6.641,4.483-10.6,5.886-11.994,16q6,9.5,11.994,19,0.5-2,1-4l11.994,21h87.959c10.924-5.445,36.56-40.718,12.994-52-11.377.472-15.767,5.494-17.992,15-28.819-33.254-65.877-1.059-75.964-5C191.913,117.828,192.594,108.984,179.165,109Zm13.993,73-29.985,18c-12.352,8.261-30.207,33.405-32.985,37-14.474,18.728-16.45,39.518-23.989,66C76.546,407.16,162.427,414.409,257.128,417l-1-4c-13.846-14.748-28.614-28.419-34.984-51q-0.5-13.5-1-27-0.5,2.5-1,5c-3.212-7.484-3.6-14.632,1-21l1,4c-0.844-72.855,47.192-86.175,107.95-102C308.816,179.2,261.085,181.564,193.158,182Zm114.947,60L276.12,256c-22.2,11.827-29.577,35.7-41.981,66-18.028,44.036,59.069,115.84,113.947,95C446.712,379.547,427.313,239.675,308.105,242Zm-26.988,78c28.219-.5,75.949-5.758,93.956,6q1.5,6.5,3,13l-5,8c-23.641,6.867-80.5,6.932-100.953-2q-1.5-6.5-3-13A76.046,76.046,0,0,1,281.117,320Zm231.891,32h0ZM1.248,528L531,529Z"/>
</svg>
