<?xml version="1.0" standalone="no"?><!DOCTYPE svg PUBLIC "-//W3C//DTD SVG 1.1//EN" "http://www.w3.org/Graphics/SVG/1.1/DTD/svg11.dtd"><svg t="1741663905036" class="icon" viewBox="0 0 1024 1024" version="1.1" xmlns="http://www.w3.org/2000/svg" p-id="1725" xmlns:xlink="http://www.w3.org/1999/xlink" width="128" height="128"><path d="M512 512m-512 0a512 512 0 1 0 1024 0 512 512 0 1 0-1024 0Z" fill="#99D6F2" p-id="1726"></path><path d="M774.326857 297.435429c3.913143 1.974857 5.851429 5.851429 5.851429 9.764571V365.714286a27.794286 27.794286 0 0 1-11.702857 23.405714c-5.851429 5.851429-13.641143 7.789714-23.405715 7.789714-5.851429 0-11.702857-1.938286-17.554285-3.876571L532.48 295.497143c-3.913143-1.938286-3.913143-5.851429-5.851429-7.789714-1.938286-1.974857 0-5.851429 1.938286-7.826286l58.514286-58.514286C590.994286 219.428571 594.907429 219.428571 598.784 219.428571l175.542857 78.006858z m-64.365714 109.238857l1.974857 1.938285a5.924571 5.924571 0 0 1 0 7.826286c-13.677714 23.405714-33.170286 60.452571-62.427429 107.264-42.898286 68.278857-99.474286 91.684571-122.88 99.474286-1.938286 0-3.913143 0-5.851428 1.938286h-1.938286l-76.068571 46.811428c-3.913143 1.974857-5.851429 1.974857-9.764572 3.913143a66.377143 66.377143 0 0 1-39.021714 0c-1.938286-1.938286-5.851429-1.938286-7.789714-3.913143l-1.938286-1.938286c-1.974857-1.938286-3.913143-1.938286-5.851429-3.913142-1.974857-1.938286-3.913143-5.851429-5.851428-7.789715a42.642286 42.642286 0 0 1-5.851429-9.764571c-1.974857 0-1.974857-1.938286-1.974857-3.876572 0-1.974857-1.938286-3.913143-1.938286-5.851428-1.938286-1.974857-1.938286-3.913143-1.938285-5.851429v-11.702857c1.938286-3.913143 1.938286-5.851429 1.938285-9.764571 3.913143-13.641143 9.764571-25.344 21.467429-33.170286 7.789714-5.851429 23.405714-15.579429 40.96-25.344 9.728-5.851429 17.554286-9.764571 23.405714-13.641143 5.851429-1.974857 11.702857-5.851429 17.554286-7.826286 1.938286 0 3.876571-1.938286 3.876571-1.938285 1.974857-13.641143 13.677714-35.108571 27.318858-52.662857a106.934857 106.934857 0 0 1-44.873143-21.467429c-11.702857 17.554286-37.046857 37.083429-54.601143 46.811429 5.851429 7.826286 9.764571 17.554286 11.702857 29.257142l5.851429 5.851429c-15.616 9.764571-31.195429 19.529143-40.96 25.380571-13.641143 7.789714-21.467429 21.430857-27.318858 35.108572L304.274286 525.641143c-15.616-17.554286-15.616-37.046857 0-58.514286l58.514285-87.771428c5.851429-9.728 9.764571-17.554286 23.405715-23.405715L507.136 307.2c1.938286-1.938286 7.789714 0 9.728 1.938286 1.974857 1.974857 3.913143 1.974857 5.851429 3.913143l187.245714 93.622857z m-255.488 286.72l23.405714-15.616c5.851429 11.702857 9.728 25.380571 9.728 39.021714a87.405714 87.405714 0 0 1-87.771428 87.771429c-48.749714 0-87.771429-39.021714-87.771429-85.833143 0-27.282286 13.677714-52.662857 33.170286-68.242286 3.913143 7.789714 5.851429 17.554286 11.702857 25.344 7.789714 11.702857 19.492571 21.467429 33.170286 25.344v35.108571c0 5.851429 3.876571 9.764571 9.728 9.764572 5.851429 0 9.764571-3.913143 9.764571-9.764572v-31.195428h3.913143a81.92 81.92 0 0 0 40.96-11.702857z" fill="#FFFFFF" p-id="1727"></path></svg>