<svg xmlns="http://www.w3.org/2000/svg" width="530" height="530" viewBox="0 0 530 530">
  <defs>
    <style>
      .cls-1 {
        fill: #f5da6d;
        fill-rule: evenodd;
      }
    </style>
  </defs>
  <path id="形状_321_1" data-name="形状 321 1" class="cls-1" d="M222.091,5.031c96.187-.988,152.371,14.492,197.083,47,25.194,18.318,55.42,50.066,68.028,74,1.993,3.783,1.4,7.271,4,3l29.012,74c17.442,33.082-2.9,133.891-14.006,156-36.236,72.108-75.08,119.87-155.065,152l-43.018,7c-19.7,7.664-72.474,9.956-92.038,2l4-2c-57.782.339-106.193-36.079-137.058-64l-27.011-34-1,4c-3.709-8-28.376-47.894-29.012-47L9,328.031c-5.5-8.752-6-38.509-6-53-0.006-97.276,26.755-134.914,65.027-188,14.006-19.427,47.494-39.3,63.026-48v-3C140.58,29.474,219.946,7.394,222.091,5.031Zm66.028,181c-0.436,21.994-1.427,48.241,5,63,5-1.044-.148.62,7,2v-5c-14.479-1.36-4.159-61.407,3-72l32.014-3-2-2c-17.215-4.136-92.96,1.924-98.041-4l2,8,44.018,2q0.5,5,1,10c-28.5,3.287-50.829,34.977-59.025,59q-3,9.5-6,19c-2.581,2.393-46.993.076-54.022,4-30.705,17.143-45.53,86.7-9,108,50.073,29.2,130.108-12.315,104.043-71-5.4-12.156-13.587-21.91-29.012-34C203.357,249.858,270.8,187.162,288.119,186.031Zm3,54,2,4h-1v-3Zm40.017,12c-7.739,8.913-14.041,6.4-27.011,13q1,25.5,2,51c8.3,28.144,48.28,34.706,74.03,18,32.212-20.9,5.012-70.031-5-78C366.918,249.476,345.322,251.951,331.137,252.031Zm-150.063,22,16.007,1,3,6q-2,6-4,12c-16.152.45-24.033,10.436-30.013,23l-17.007,1-4-13,22.009-26Z"/>
</svg>
