<svg xmlns="http://www.w3.org/2000/svg" width="530" height="530" viewBox="0 0 530 530">
  <defs>
    <style>
      .cls-1 {
        fill: #9adcf7;
        fill-rule: evenodd;
      }
    </style>
  </defs>
  <path id="形状_331_1" data-name="形状 331 1" class="cls-1" d="M221.117,4.031c62.277-.551,112.827,6.168,148.079,21,13,5.47,81.783,41.792,65.035,40l8,6c12.947,13.022,43.8,51.907,43.023,48q2,5,4,10c10.278,19.9,23.289,43.889,29.016,64v4c16.757,20.408,9.1,133.987-2,149.991q-0.5-3-1-6c0.414,31.164-26.96,69.038-47.025,95.994-1.981-.429-26.473,22.808-33.017,28l4,1c-21.517,18.233-42.8,23.373-68.037,42h4c-21.491,16.161-58.746,18-95.051,18C139.257,526,86.836,474.622,41.02,407.007v4C26.578,390.534,15.942,358.282,5,328.012l-1-39-1,21,1-89.995,1,21c-0.8-46.7,11.8-84.618,30.016-109.993v4C61.7,96.344,81.466,62.679,123.064,43.029c4.344-2.052,14.9-7.62,11.006-10l51.028-22C198.715,5.987,211.894,12.007,221.117,4.031ZM335.178,370.009c0.059-23.975-11.714-39.015-12.006-54l5,9q-2.5-13.5-5-27l47.025-54c-3.356-.272-71.038-15-71.038-15l-20.011-35c-4.847-8.364-3.3-19.547-11.006-25v5l-11.006-1c-11.179,17.473-16.149,53.09-36.019,59l-28.015,1c-12.415,3.85-26.109,8.534-38.021,9,8.813,22.477,35.242,30.524,46.025,50,13.221,23.877-10.773,54.251-9,78h5c2.651-6.184,18.869-10.317,30.016-12C275.384,317.2,292.528,367.351,335.178,370.009Zm188.1-58v0Z"/>
</svg>
